<svg xmlns="http://www.w3.org/2000/svg" viewBox="0 0 512 512">
  <rect width="512" height="512" rx="96" fill="#fff4f1"/>
  <path d="M164 202h184l-18 196a42 42 0 0 1-42 38h-64a42 42 0 0 1-42-38l-18-196z" fill="#e5a09c"/>
  <path d="M188 204v-28c0-60 34-100 68-100s68 40 68 100v28" fill="none" stroke="#d58f8b" stroke-width="26" stroke-linecap="round"/>
  <path d="M256 347c-44-33-74-61-74-93 0-24 18-42 40-42 16 0 28 9 34 21 6-12 18-21 34-21 22 0 40 18 40 42 0 32-30 60-74 93z" fill="#fff7f4"/>
</svg>
